<svg width="110" height="34" viewBox="0 0 110 34" fill="none" xmlns="http://www.w3.org/2000/svg">
<path d="M19.4574 5.43686C19.4815 5.65258 19.3914 5.85032 19.1873 6.03009C18.9952 6.20986 18.7611 6.43756 18.4849 6.7132C18.2088 6.98884 18.0167 7.3244 17.9086 7.71988L15.6214 15.7015C15.5374 15.9771 15.3813 16.2048 15.1532 16.3846C14.925 16.5643 14.6669 16.6542 14.3787 16.6542H13.6764C13.4122 16.6542 13.1661 16.5763 12.938 16.4205C12.7219 16.2647 12.5658 16.061 12.4697 15.8093C12.3016 15.3539 11.9414 14.3532 11.3892 12.8072C10.8489 11.2613 10.4466 10.1527 10.1825 9.48158L8.14743 15.7734C8.07539 16.037 7.93131 16.2527 7.7152 16.4205C7.49908 16.5763 7.25895 16.6542 6.99481 16.6542L6.13035 16.6362C5.59007 16.6123 5.22988 16.3426 5.04978 15.8273C4.78564 15.1202 4.44346 14.1435 4.02323 12.8971C3.60301 11.6388 3.2128 10.4823 2.85261 9.42765C2.50443 8.36105 2.32433 7.80977 2.31232 7.77381C2.19226 7.45024 2.01817 7.1686 1.79005 6.92892C1.57393 6.67724 1.37583 6.49748 1.19573 6.38962C1.01563 6.28176 0.871557 6.14993 0.7635 5.99414C0.655443 5.83834 0.63143 5.65857 0.691462 5.45484C0.823532 4.97547 1.81406 4.73578 3.66304 4.73578C6.06432 4.73578 7.29497 4.97547 7.35501 5.45484C7.37902 5.61064 7.31298 5.80239 7.1569 6.03009C7.00082 6.25779 6.87475 6.4795 6.7787 6.69522C6.69465 6.89896 6.72467 7.25849 6.86875 7.77381L7.93131 11.1174C8.12341 10.5662 8.45959 9.55948 8.93985 8.09739C9.43211 6.6353 9.70225 5.83834 9.75028 5.70651C9.83432 5.41889 9.99641 5.19118 10.2365 5.0234C10.4767 4.84364 10.7408 4.74776 11.029 4.73578H11.8214C12.0975 4.73578 12.3557 4.81967 12.5958 4.98745C12.8359 5.15523 13.004 5.37095 13.1001 5.63461L15.2432 11.441C15.3633 11.0216 15.5073 10.5182 15.6754 9.931C15.8435 9.34376 15.9816 8.8584 16.0896 8.4749C16.2097 8.0914 16.2878 7.83374 16.3238 7.70191C16.4318 7.36635 16.4378 7.07872 16.3418 6.83903C16.2577 6.59935 16.1437 6.41958 15.9996 6.29974C15.8555 6.17989 15.7114 6.04207 15.5674 5.88628C15.4233 5.73048 15.3513 5.57468 15.3513 5.41889C15.3513 4.90356 16.1077 4.66987 17.6205 4.7178C18.0047 4.7178 18.3949 4.77773 18.7911 4.89757C19.1993 5.00543 19.4214 5.18519 19.4574 5.43686Z" fill="#103A39"/>
<path d="M23.8232 7.05475C23.355 7.42627 22.7847 7.61202 22.1123 7.61202C21.4399 7.61202 20.8636 7.42627 20.3834 7.05475C19.9151 6.67125 19.681 6.20986 19.681 5.67056C19.681 5.14325 19.9151 4.69383 20.3834 4.32232C20.8636 3.93882 21.4399 3.74707 22.1123 3.74707C22.7727 3.74707 23.337 3.93882 23.8052 4.32232C24.2855 4.69383 24.5256 5.14325 24.5256 5.67056C24.5256 6.20986 24.2915 6.67125 23.8232 7.05475ZM24.3095 13.778C24.3095 14.0896 24.3635 14.3652 24.4716 14.6049C24.5916 14.8446 24.7237 15.0243 24.8678 15.1442C25.0118 15.2521 25.1319 15.3839 25.228 15.5397C25.336 15.6835 25.384 15.8333 25.372 15.9891C25.336 16.4445 24.3275 16.6722 22.3464 16.6722C22.1423 16.6722 21.9082 16.6662 21.6441 16.6542C21.3919 16.6422 21.0738 16.6183 20.6895 16.5823C20.3053 16.5344 19.9812 16.4625 19.717 16.3666C19.4529 16.2587 19.3088 16.1329 19.2848 15.9891C19.2608 15.7973 19.3388 15.6176 19.5189 15.4498C19.699 15.27 19.8911 15.0483 20.0952 14.7847C20.2993 14.509 20.4014 14.1795 20.4014 13.796V11.9623C20.4014 10.9077 20.2033 10.3385 19.8071 10.2546C19.591 10.2186 19.4349 10.1347 19.3388 10.0029C19.2548 9.85909 19.2428 9.71528 19.3028 9.57147C19.3748 9.41567 19.5249 9.30182 19.753 9.22991C20.7016 8.91832 21.8722 8.57077 23.2649 8.18727C23.409 8.15132 23.5291 8.13334 23.6251 8.13334C23.8172 8.13334 23.9673 8.19926 24.0753 8.33109C24.1834 8.45093 24.2494 8.61272 24.2735 8.81645C24.3095 9.0082 24.3275 9.2359 24.3275 9.49956C24.3395 9.75123 24.3335 10.0089 24.3095 10.2726V13.778Z" fill="#103A39"/>
<path d="M31.1042 8.51085H32.5809C32.677 8.51085 32.761 8.5468 32.8331 8.61871C32.9051 8.69062 32.9411 8.77451 32.9411 8.87038V9.28384C32.9411 9.37972 32.9051 9.46361 32.8331 9.53551C32.761 9.60742 32.677 9.64337 32.5809 9.64337H31.1042V12.5735C31.1042 12.6574 31.0981 12.8312 31.0861 13.0949C31.0861 13.3465 31.0861 13.5263 31.0861 13.6342C31.0981 13.742 31.1102 13.8978 31.1222 14.1016C31.1342 14.3053 31.1582 14.4611 31.1942 14.5689C31.2422 14.6648 31.2963 14.7787 31.3563 14.9105C31.4163 15.0303 31.5004 15.1202 31.6084 15.1801C31.7165 15.2281 31.8425 15.258 31.9866 15.27C32.1067 15.27 32.1907 15.258 32.2388 15.2341C32.4429 15.1742 32.6049 15.2341 32.725 15.4138C32.8571 15.5816 32.8571 15.7434 32.725 15.8992C32.2448 16.4385 31.5544 16.7501 30.6539 16.834C29.4773 16.9418 28.5528 16.7441 27.8804 16.2408C27.2081 15.7374 26.8659 14.9824 26.8539 13.9757C26.8539 13.8439 26.8539 13.5023 26.8539 12.9511C26.8539 12.3878 26.8539 11.7406 26.8539 11.0096C26.8539 10.2666 26.8539 9.81115 26.8539 9.64337H25.9894C25.8934 9.64337 25.8093 9.60742 25.7373 9.53551C25.6653 9.46361 25.6292 9.37972 25.6292 9.28384V8.87038C25.6292 8.77451 25.6653 8.69062 25.7373 8.61871C25.8093 8.5468 25.8934 8.51085 25.9894 8.51085C27.2981 8.42696 28.7089 7.3244 30.2217 5.20317C30.3177 5.07134 30.4498 5.00543 30.6179 5.00543C30.75 5.00543 30.864 5.04737 30.9601 5.13126C31.0561 5.21515 31.1042 5.32301 31.1042 5.45484V8.51085Z" fill="#103A39"/>
<path d="M45.0572 13.778C45.0572 14.0896 45.1172 14.3652 45.2373 14.6049C45.3574 14.8446 45.4894 15.0243 45.6335 15.1442C45.7776 15.2521 45.9037 15.3839 46.0117 15.5397C46.1318 15.6835 46.1858 15.8333 46.1738 15.9891C46.1378 16.4445 45.0872 16.6722 43.0221 16.6722C42.6619 16.6722 42.3498 16.6123 42.0856 16.4924C41.8335 16.3726 41.6354 16.2288 41.4913 16.061C41.3592 15.8812 41.2512 15.6535 41.1671 15.3779C41.0951 15.1022 41.0471 14.8506 41.0231 14.6229C40.9991 14.3832 40.987 14.1075 40.987 13.796V11.9623C40.987 11.9144 40.987 11.8485 40.987 11.7646C40.987 11.3811 40.981 11.0875 40.969 10.8838C40.957 10.668 40.927 10.4224 40.879 10.1467C40.843 9.85909 40.7649 9.64936 40.6449 9.51754C40.5248 9.38571 40.3687 9.31979 40.1766 9.31979C39.6964 9.31979 39.3362 9.58944 39.096 10.1287C38.8679 10.668 38.7539 11.2613 38.7539 11.9084V13.778C38.7539 14.0896 38.8139 14.3652 38.934 14.6049C39.054 14.8446 39.1861 15.0243 39.3302 15.1442C39.4862 15.2521 39.6183 15.3839 39.7264 15.5397C39.8464 15.6835 39.9005 15.8333 39.8885 15.9891C39.8404 16.4445 38.7839 16.6722 36.7188 16.6722C36.5027 16.6722 36.2565 16.6662 35.9804 16.6542C35.7162 16.6422 35.3861 16.6183 34.9899 16.5823C34.5936 16.5344 34.2575 16.4625 33.9813 16.3666C33.7052 16.2587 33.5551 16.1329 33.5311 15.9891C33.5071 15.8333 33.5491 15.6835 33.6571 15.5397C33.7772 15.3839 33.9093 15.2521 34.0534 15.1442C34.2094 15.0243 34.3535 14.8446 34.4856 14.6049C34.6177 14.3652 34.6837 14.0956 34.6837 13.796V8.51085C34.6837 7.45623 34.4796 6.88697 34.0714 6.80308C33.8553 6.76713 33.6932 6.68324 33.5851 6.55141C33.4891 6.4076 33.4771 6.25779 33.5491 6.102C33.6211 5.9462 33.7772 5.83235 34.0173 5.76044C34.1494 5.72449 34.3775 5.65258 34.7017 5.54472C35.0259 5.43686 35.242 5.36496 35.35 5.32901C35.4581 5.29305 35.6322 5.23313 35.8723 5.14924C36.1245 5.05336 36.3226 4.97547 36.4666 4.91554C36.6107 4.84364 36.7908 4.75975 37.0069 4.66387C37.223 4.55601 37.4452 4.43617 37.6733 4.30434C37.9134 4.17251 38.0995 4.1066 38.2316 4.1066C38.3036 4.1066 38.3697 4.12458 38.4297 4.16053C38.4897 4.1845 38.5377 4.22644 38.5738 4.28637C38.6218 4.34629 38.6578 4.4122 38.6818 4.48411C38.7058 4.54403 38.7238 4.62792 38.7359 4.73578C38.7599 4.84364 38.7719 4.93951 38.7719 5.0234C38.7839 5.10729 38.7899 5.21515 38.7899 5.34698C38.7899 5.47881 38.7899 5.59266 38.7899 5.68854C38.7899 5.77243 38.7839 5.89227 38.7719 6.04807C38.7719 6.19188 38.7719 6.29974 38.7719 6.37164C38.7599 6.64728 38.7539 7.64199 38.7539 9.35575C39.2461 8.43295 40.0686 7.89965 41.2212 7.75584C42.3258 7.62401 43.2382 7.82774 43.9586 8.36704C44.691 8.90633 45.0572 9.64337 45.0572 10.5782V13.778Z" fill="#103A39"/>
<path d="M58.741 11.6028C59.2813 11.6028 59.5515 12.4537 59.5515 14.1555C59.5515 15.4019 59.3173 16.1329 58.8491 16.3486C58.3688 16.5524 56.5679 16.6542 53.4462 16.6542C53.1941 16.6542 52.8639 16.6422 52.4557 16.6183C52.0595 16.6063 51.5672 16.5823 50.9789 16.5464C50.4026 16.4984 49.9103 16.4265 49.5021 16.3306C49.1059 16.2348 48.8958 16.1149 48.8718 15.9711C48.8358 15.7794 48.9078 15.5936 49.0879 15.4138C49.28 15.2341 49.4781 15.0124 49.6822 14.7487C49.8983 14.4731 50.0064 14.1435 50.0064 13.76V7.61202C50.0064 7.22853 49.8983 6.90495 49.6822 6.64129C49.4781 6.36565 49.28 6.14394 49.0879 5.97616C48.9078 5.7964 48.8358 5.61064 48.8718 5.41889C48.8958 5.27508 49.0459 5.15523 49.322 5.05936C49.6102 4.9515 49.9524 4.87959 50.3486 4.84364C50.7568 4.7957 51.105 4.76574 51.3931 4.75376C51.6813 4.72979 51.9274 4.7178 52.1315 4.7178C54.2446 4.7178 55.3252 4.9515 55.3732 5.41889C55.3853 5.57468 55.3312 5.73048 55.2112 5.88628C55.1031 6.03009 54.971 6.15593 54.8149 6.26378C54.6709 6.37164 54.5388 6.54542 54.4187 6.7851C54.2987 7.02479 54.2386 7.30043 54.2386 7.61202V13.76C54.2386 14.3832 54.3227 14.8266 54.4908 15.0903C54.6589 15.3539 54.917 15.4977 55.2652 15.5217H56.1477C56.4958 15.5217 56.796 15.3899 57.0481 15.1262C57.3003 14.8506 57.4924 14.521 57.6244 14.1375C57.7565 13.754 57.8706 13.3705 57.9666 12.987C58.0627 12.6035 58.1707 12.2799 58.2908 12.0163C58.4229 11.7406 58.5729 11.6028 58.741 11.6028Z" fill="#103A39"/>
<path d="M65.4925 7.77381C66.9813 7.77381 68.248 8.19926 69.2925 9.05015C70.3491 9.88905 70.8774 10.9617 70.8774 12.2679C70.8774 13.5742 70.3491 14.6528 69.2925 15.5037C68.248 16.3426 66.9813 16.7621 65.4925 16.7621C63.9917 16.7621 62.719 16.3426 61.6745 15.5037C60.6299 14.6648 60.1077 13.5862 60.1077 12.2679C60.1077 10.9497 60.6299 9.87108 61.6745 9.03217C62.719 8.19327 63.9917 7.77381 65.4925 7.77381ZM66.5011 15.6296C67.2334 15.4618 67.2935 14.2334 66.6811 11.9444C66.1048 9.71528 65.3965 8.7026 64.556 8.90633C63.8476 9.07412 63.7816 10.3085 64.3579 12.6095C64.598 13.5922 64.9042 14.3712 65.2764 14.9464C65.6606 15.5097 66.0688 15.7374 66.5011 15.6296Z" fill="#103A39"/>
<path d="M80.918 7.71988C81.3142 7.71988 81.7044 7.77981 82.0886 7.89965C82.4848 8.00751 82.6769 8.18727 82.6649 8.43894C82.6529 8.64268 82.5389 8.83443 82.3227 9.01419C82.1066 9.19396 81.8365 9.42765 81.5123 9.71528C81.2001 9.99092 80.96 10.3205 80.7919 10.704L78.6308 15.7734C78.5107 16.049 78.3246 16.2707 78.0725 16.4385C77.8203 16.6063 77.5442 16.6902 77.244 16.6902H76.1635C75.8633 16.6902 75.5872 16.6123 75.335 16.4565C75.0949 16.2887 74.9088 16.067 74.7767 15.7913C74.5366 15.264 74.2364 14.6049 73.8763 13.8139C73.5161 13.023 73.2039 12.3399 72.9398 11.7646C72.6756 11.1774 72.5195 10.8238 72.4715 10.704C72.2914 10.3085 72.0513 9.97294 71.7511 9.6973C71.451 9.42166 71.2228 9.20594 71.0668 9.05015C70.9107 8.88237 70.8566 8.67264 70.9047 8.42097C71.0007 7.94159 71.8892 7.70191 73.5701 7.70191C75.7192 7.70191 76.8718 7.94159 77.0279 8.42097C77.076 8.57677 77.0159 8.76252 76.8478 8.97824C76.6918 9.19396 76.5597 9.40968 76.4516 9.6254C76.3556 9.84111 76.3976 10.2006 76.5777 10.704L78.0185 14.2633C78.2586 13.724 78.5407 13.005 78.8649 12.1062C79.2011 11.2073 79.3752 10.7399 79.3872 10.704C79.5673 10.1767 79.5973 9.81715 79.4772 9.6254C79.3572 9.43365 79.1951 9.2359 78.991 9.03217C78.7869 8.81645 78.6968 8.61272 78.7208 8.42097C78.7809 7.95358 79.5132 7.71988 80.918 7.71988Z" fill="#103A39"/>
<path d="M92.1588 12.9511C92.2428 12.8072 92.3689 12.7353 92.537 12.7353C92.6931 12.7353 92.8251 12.7953 92.9332 12.9151C93.0413 13.0349 93.0713 13.1788 93.0232 13.3465C92.7471 14.3652 92.1408 15.1921 91.2043 15.8273C90.2798 16.4505 89.2172 16.7621 88.0166 16.7621C86.5878 16.7621 85.3692 16.3366 84.3606 15.4857C83.3641 14.6349 82.8658 13.5503 82.8658 12.232C82.8658 10.9497 83.3281 9.88905 84.2526 9.05015C85.1891 8.21124 86.3417 7.76183 87.7104 7.70191C89.2592 7.63 90.4299 7.84572 91.2223 8.34906C92.0147 8.84042 92.4649 9.43365 92.573 10.1287C92.645 10.6201 92.567 11.0635 92.3389 11.459C92.1228 11.8545 91.8046 12.1661 91.3844 12.3938C90.9762 12.6095 90.5379 12.7773 90.0697 12.8971C89.6014 13.005 89.1332 13.0589 88.6649 13.0589C88.1246 13.0589 87.7044 12.987 87.4043 12.8432C87.7044 13.3226 88.0766 13.6941 88.5209 13.9577C88.9771 14.2094 89.4513 14.3173 89.9436 14.2813C90.3758 14.2573 90.7901 14.1255 91.1863 13.8858C91.5825 13.6461 91.9067 13.3346 92.1588 12.9511ZM87.8545 8.27716C87.4703 8.31311 87.1701 8.59474 86.954 9.12205C86.7499 9.64937 86.6659 10.1707 86.7019 10.686C86.7379 11.2253 86.858 11.7346 87.0621 12.214C87.2542 12.238 87.3983 12.25 87.4943 12.25C87.9506 12.25 88.3287 12.0642 88.6289 11.6927C88.9291 11.3092 89.0731 10.7819 89.0611 10.1108C89.0491 9.63139 88.9291 9.19995 88.701 8.81645C88.4848 8.42097 88.2027 8.2412 87.8545 8.27716Z" fill="#103A39"/>
<path d="M11.3653 20.9766C11.3653 20.9992 11.3653 21.0388 11.3653 21.0953C11.3653 21.3213 11.3597 21.5078 11.3484 21.6548C11.3484 21.7904 11.3257 21.9712 11.2804 22.1973C11.2465 22.4233 11.1785 22.5985 11.0766 22.7228C10.9747 22.8358 10.8445 22.8923 10.686 22.8923C10.4935 22.8923 10.3236 22.7341 10.1764 22.4177C10.0292 22.1012 9.90467 21.7508 9.80276 21.3665C9.70086 20.971 9.51403 20.6149 9.24227 20.2985C8.98184 19.9707 8.64782 19.8068 8.24019 19.8068H6.64364C6.04352 19.8746 5.74346 20.4228 5.74346 21.4513V24.1469H5.82838C6.15675 24.1469 6.4285 24.0904 6.64364 23.9774C6.8701 23.853 7.03428 23.7061 7.13619 23.5366C7.24942 23.3557 7.34001 23.1806 7.40794 23.011C7.4872 22.8415 7.57779 22.7002 7.6797 22.5872C7.79293 22.4629 7.9288 22.4007 8.08733 22.4007C8.17791 22.4007 8.25717 22.4177 8.32511 22.4516C8.39305 22.4742 8.444 22.5194 8.47797 22.5872C8.52326 22.6437 8.55723 22.7002 8.57988 22.7567C8.61385 22.8019 8.63083 22.881 8.63083 22.9941C8.64215 23.0958 8.64782 23.1749 8.64782 23.2314C8.64782 23.2766 8.64782 23.3614 8.64782 23.4857C8.64782 23.61 8.64782 23.6892 8.64782 23.7231V25.6388C8.64782 25.6727 8.64782 25.7518 8.64782 25.8761C8.64782 26.0005 8.64782 26.0909 8.64782 26.1474C8.64782 26.1926 8.64215 26.2717 8.63083 26.3847C8.63083 26.4865 8.61385 26.5656 8.57988 26.6221C8.55723 26.6673 8.52326 26.7238 8.47797 26.7916C8.444 26.8481 8.39305 26.8933 8.32511 26.9273C8.25717 26.9499 8.17791 26.9612 8.08733 26.9612C7.9288 26.9612 7.79293 26.9047 7.6797 26.7916C7.57779 26.6673 7.4872 26.5204 7.40794 26.3508C7.34001 26.1813 7.24942 26.0118 7.13619 25.8422C7.03428 25.6727 6.8701 25.5314 6.64364 25.4184C6.4285 25.2941 6.15675 25.2319 5.82838 25.2319H5.74346V27.2663C5.74346 27.5602 5.80007 27.8201 5.9133 28.0462C6.02653 28.2722 6.15109 28.4418 6.28696 28.5548C6.43416 28.6565 6.55872 28.7808 6.66062 28.9278C6.77385 29.0634 6.82481 29.2047 6.81348 29.3516C6.76819 29.7811 5.74912 29.9958 3.75627 29.9958C3.56377 29.9958 3.33165 29.9845 3.0599 29.9619C2.78815 29.9506 2.45978 29.928 2.0748 29.8941C1.70114 29.8489 1.37843 29.7811 1.10668 29.6907C0.846247 29.6002 0.704709 29.4872 0.682063 29.3516C0.648094 29.1708 0.716032 28.9956 0.885877 28.826C1.06705 28.6565 1.25388 28.4474 1.44637 28.1988C1.65018 27.9388 1.75209 27.628 1.75209 27.2663V21.4513C1.75209 21.0896 1.65018 20.7845 1.44637 20.5358C1.25388 20.2759 1.06705 20.0611 0.885877 19.8916C0.716032 19.7221 0.648094 19.5469 0.682063 19.366C0.704709 19.2304 0.908523 19.1174 1.29351 19.027C1.68981 18.9253 2.16538 18.8574 2.72021 18.8235C3.28636 18.7783 3.7506 18.7501 4.11294 18.7388C4.4866 18.7275 4.79232 18.7218 5.03011 18.7218C8.38172 18.7218 10.2953 18.8235 10.7709 19.027C11.1672 19.1965 11.3653 19.8464 11.3653 20.9766Z" fill="#103A39"/>
<path d="M16.8682 27.2833C16.8682 27.5771 16.9248 27.8371 17.038 28.0631C17.1513 28.2892 17.2758 28.4587 17.4117 28.5717C17.5589 28.6735 17.6835 28.7978 17.7854 28.9447C17.8873 29.0803 17.9326 29.2216 17.9212 29.3685C17.8873 29.798 16.9192 30.0128 15.0169 30.0128C14.8131 30.0128 14.581 30.0071 14.3205 29.9958C14.0714 29.9845 13.76 29.9619 13.3864 29.928C13.0127 29.8828 12.6957 29.815 12.4352 29.7246C12.1748 29.6228 12.0333 29.5042 12.0106 29.3685C11.988 29.2216 12.0276 29.0803 12.1295 28.9447C12.2427 28.7978 12.3673 28.6678 12.5032 28.5548C12.6504 28.4418 12.7863 28.2722 12.9108 28.0462C13.0354 27.8201 13.0976 27.5658 13.0976 27.2833V25.571C13.0976 24.5764 12.9051 24.0395 12.5202 23.9604C12.3163 23.9265 12.1635 23.8474 12.0616 23.7231C11.971 23.5874 11.9597 23.4518 12.0276 23.3162C12.0955 23.1693 12.2427 23.0619 12.4692 22.9941C13.1939 22.7567 13.743 22.5533 14.1167 22.3837C14.4904 22.2029 14.9093 21.943 15.3736 21.6039C15.5887 21.457 15.7699 21.3835 15.9171 21.3835C16.2454 21.3835 16.4945 21.8017 16.6644 22.638C16.9248 22.0277 17.2645 21.457 17.6835 20.9258C18.1137 20.3832 18.6289 19.8746 19.2291 19.4C19.8405 18.9253 20.5652 18.5466 21.4031 18.2641C22.2523 17.9815 23.1638 17.8289 24.1376 17.8063C24.7943 17.795 25.3039 17.9307 25.6662 18.2132C26.0399 18.4958 26.2154 18.8461 26.1927 19.2643C26.1814 19.6373 26.0229 19.9481 25.7172 20.1968C25.4228 20.4454 25.0491 20.5245 24.5962 20.4341C24.4037 20.3889 24.1772 20.3098 23.9168 20.1968C23.6677 20.0724 23.4073 19.9877 23.1355 19.9425C22.8751 19.8859 22.5297 19.8803 22.0994 19.9255C21.5446 19.9933 20.9954 20.1516 20.4519 20.4002C19.9198 20.6489 19.3932 20.9936 18.8724 21.4344C18.3628 21.8751 17.9269 22.4629 17.5646 23.1975C17.2022 23.9209 16.9701 24.7403 16.8682 25.6558V27.2833ZM23.4582 21.6039C24.8736 21.6039 26.0738 21.9995 27.0589 22.7906C28.044 23.5818 28.5366 24.599 28.5366 25.8422C28.5366 27.0855 28.044 28.1083 27.0589 28.9108C26.0738 29.702 24.8736 30.0975 23.4582 30.0975C22.0542 30.0975 20.8539 29.702 19.8575 28.9108C18.8724 28.1083 18.3798 27.0855 18.3798 25.8422C18.3798 24.6103 18.8724 23.5987 19.8575 22.8076C20.8539 22.0051 22.0542 21.6039 23.4582 21.6039ZM24.4093 29.0295C24.6811 28.9617 24.8509 28.7469 24.9189 28.3852C24.9981 28.0123 25.0038 27.611 24.9359 27.1816C24.8792 26.7408 24.766 26.1983 24.5962 25.554C24.03 23.4518 23.3563 22.4968 22.575 22.6889C22.3033 22.7567 22.1278 22.9715 22.0485 23.3331C21.9806 23.6835 21.9806 24.0847 22.0485 24.5368C22.1164 24.9776 22.2297 25.5258 22.3882 26.1813C22.6146 27.0968 22.9034 27.8258 23.2544 28.3683C23.6167 28.9108 24.0017 29.1312 24.4093 29.0295Z" fill="#103A39"/>
<path d="M45.0076 27.2833C45.0076 27.5771 45.0642 27.8371 45.1775 28.0631C45.2907 28.2892 45.4152 28.4587 45.5511 28.5717C45.6983 28.6735 45.8229 28.7978 45.9248 28.9447C46.0267 29.0803 46.072 29.2216 46.0607 29.3685C46.0267 29.798 45.0359 30.0128 43.0884 30.0128C42.7487 30.0128 42.4543 29.9563 42.2052 29.8432C41.9674 29.7302 41.7806 29.5946 41.6447 29.4364C41.5201 29.2668 41.4182 29.0521 41.339 28.7921C41.271 28.5322 41.2257 28.2948 41.2031 28.0801C41.1804 27.854 41.1691 27.5941 41.1691 27.3002V25.571C41.1691 24.5199 41.1182 23.853 41.0162 23.5705C40.8804 23.254 40.6766 23.0901 40.4048 23.0788C39.8273 23.0901 39.5273 23.7965 39.5046 25.198V27.2833C39.5046 27.5771 39.5612 27.8371 39.6745 28.0631C39.7877 28.2892 39.9123 28.4587 40.0481 28.5717C40.184 28.6735 40.3029 28.7978 40.4048 28.9447C40.518 29.0803 40.569 29.2216 40.5577 29.3685C40.5237 29.798 39.5329 30.0128 37.5854 30.0128C37.2457 30.0128 36.9513 29.9563 36.7022 29.8432C36.4644 29.7302 36.2776 29.5946 36.1417 29.4364C36.0171 29.2668 35.9152 29.0521 35.836 28.7921C35.768 28.5322 35.7227 28.2948 35.7001 28.0801C35.6774 27.854 35.6661 27.5941 35.6661 27.3002V25.571C35.6661 25.5258 35.6661 25.4636 35.6661 25.3845C35.6661 25.0228 35.6605 24.7459 35.6491 24.5538C35.6378 24.3503 35.6095 24.1186 35.5642 23.8587C35.5302 23.5874 35.4566 23.3896 35.3434 23.2653C35.2302 23.141 35.083 23.0788 34.9018 23.0788C34.347 23.0901 34.0469 23.7626 34.0016 25.0963V27.2833C34.0016 27.5771 34.0582 27.8371 34.1715 28.0631C34.2847 28.2892 34.4093 28.4587 34.5451 28.5717C34.6923 28.6735 34.8169 28.7978 34.9188 28.9447C35.0207 29.0803 35.066 29.2216 35.0547 29.3685C35.0207 29.798 34.0526 30.0128 32.1503 30.0128C31.9465 30.0128 31.7144 30.0071 31.4539 29.9958C31.2048 29.9845 30.8935 29.9619 30.5198 29.928C30.1461 29.8828 29.8291 29.815 29.5687 29.7246C29.3082 29.6228 29.1667 29.5042 29.144 29.3685C29.1214 29.2216 29.161 29.0803 29.2629 28.9447C29.3762 28.7978 29.5007 28.6735 29.6366 28.5717C29.7838 28.4587 29.9197 28.2892 30.0442 28.0631C30.1688 27.8371 30.2311 27.5828 30.2311 27.3002V25.571C30.2311 24.5764 30.0386 24.0452 29.6536 23.9774C29.4498 23.9322 29.2969 23.8474 29.195 23.7231C29.1044 23.5874 29.0931 23.4518 29.161 23.3162C29.229 23.1693 29.3762 23.0619 29.6026 22.9941C30.3273 22.7567 30.8765 22.5533 31.2501 22.3837C31.6238 22.2029 32.0427 21.943 32.507 21.6039C32.7221 21.457 32.9033 21.3835 33.0505 21.3835C33.3789 21.3835 33.645 21.8808 33.8488 22.8754C33.8601 22.9432 33.8714 22.9941 33.8827 23.028C34.3243 22.2029 35.032 21.7282 36.0058 21.6039C36.8324 21.5022 37.5401 21.5813 38.1289 21.8412C38.729 22.0899 39.1366 22.4968 39.3518 23.0619C39.7594 22.1916 40.4388 21.7056 41.3899 21.6039C42.4429 21.4909 43.3092 21.6887 43.9885 22.1973C44.6679 22.6946 45.0076 23.384 45.0076 24.2656V27.2833Z" fill="#103A39"/>
<path d="M58.8464 19.4C58.8803 19.5808 58.818 19.756 58.6595 19.9255C58.501 20.095 58.3312 20.3098 58.15 20.5697C57.9688 20.8297 57.8782 21.1405 57.8782 21.5022V26.0965C57.8782 27.5093 57.3857 28.5604 56.4006 29.2499C55.4155 29.928 54.1643 30.2671 52.647 30.2671C51.2656 30.2671 50.1163 29.928 49.1991 29.2499C48.2933 28.5604 47.8121 27.7071 47.7554 26.6899C47.7328 26.0005 47.931 25.4014 48.3499 24.8928C48.7689 24.3842 49.3067 24.1243 49.9634 24.113C50.5636 24.1017 51.0391 24.2656 51.3901 24.6046C51.7412 24.9324 51.8884 25.3449 51.8317 25.8422C51.8091 26.057 51.6676 26.3565 51.4071 26.7408C51.1467 27.125 51.0165 27.5319 51.0165 27.9614C51.0165 28.4022 51.158 28.7243 51.4411 28.9278C51.7242 29.1199 52.0242 29.2047 52.3413 29.1821C52.8621 29.1595 53.2471 28.9221 53.4962 28.47C53.7567 28.0179 53.8869 27.2833 53.8869 26.2661V21.5022C53.8869 21.197 53.8246 20.9314 53.7 20.7054C53.5755 20.4793 53.4339 20.3154 53.2754 20.2137C53.1282 20.1007 52.9924 19.9764 52.8678 19.8407C52.7546 19.6938 52.7036 19.5469 52.7149 19.4C52.7489 18.9592 53.768 18.7388 55.7722 18.7388C55.9646 18.7388 56.1911 18.7501 56.4515 18.7727C56.7233 18.784 57.0517 18.8122 57.4366 18.8574C57.8216 18.8914 58.1443 18.9592 58.4048 19.0609C58.6765 19.1513 58.8237 19.2643 58.8464 19.4Z" fill="#103A39"/>
<path d="M69.7317 27.2833C69.7317 27.5771 69.7884 27.8371 69.9016 28.0631C70.0148 28.2892 70.1394 28.4531 70.2752 28.5548C70.4224 28.6565 70.547 28.7808 70.6489 28.9278C70.7621 29.0634 70.8131 29.2047 70.8018 29.3516C70.7565 29.7924 69.7601 30.0128 67.8125 30.0128C66.7708 30.0128 66.1593 29.4985 65.9782 28.47C65.4913 29.3855 64.7043 29.911 63.6173 30.0467C62.5643 30.1823 61.6924 29.9958 61.0017 29.4872C60.3223 28.9786 59.9826 28.2835 59.9826 27.4019V25.5032C59.9826 24.5199 59.7901 23.9887 59.4051 23.9096C59.2013 23.8756 59.0485 23.7965 58.9466 23.6722C58.856 23.5366 58.8446 23.3953 58.9126 23.2484C58.9805 23.1014 59.1277 22.9941 59.3542 22.9263C59.4787 22.8923 59.6939 22.8245 59.9996 22.7228C60.3053 22.6211 60.5091 22.5533 60.611 22.5194C60.7129 22.4855 60.8771 22.429 61.1036 22.3498C61.3414 22.2594 61.5282 22.186 61.6641 22.1294C61.8 22.0616 61.9698 21.9825 62.1736 21.8921C62.3774 21.7904 62.5869 21.6774 62.802 21.553C63.0285 21.4287 63.204 21.3665 63.3286 21.3665C63.3965 21.3665 63.4588 21.3835 63.5154 21.4174C63.572 21.44 63.6173 21.4796 63.6513 21.5361C63.6966 21.5926 63.7305 21.6548 63.7532 21.7226C63.7758 21.7791 63.7928 21.8582 63.8041 21.9599C63.8268 22.0616 63.8381 22.1521 63.8381 22.2312C63.8494 22.3103 63.8551 22.412 63.8551 22.5363C63.8551 22.6607 63.8551 22.768 63.8551 22.8584C63.8551 22.9376 63.8494 23.0506 63.8381 23.1975C63.8381 23.3331 63.8381 23.4349 63.8381 23.5027V26.0965C63.8381 27.1476 63.8891 27.8145 63.991 28.097C64.1268 28.4022 64.3307 28.5604 64.6024 28.5717C64.9874 28.5717 65.2875 28.3852 65.5026 28.0123C65.7177 27.6393 65.8479 27.1872 65.8932 26.656V25.5032C65.8932 24.5199 65.7007 23.9887 65.3158 23.9096C65.1119 23.8756 64.9591 23.7965 64.8572 23.6722C64.7666 23.5366 64.7553 23.3953 64.8232 23.2484C64.8911 23.1014 65.0383 22.9941 65.2648 22.9263C65.3894 22.8923 65.6045 22.8245 65.9102 22.7228C66.2159 22.6211 66.4198 22.5533 66.5217 22.5194C66.6236 22.4855 66.7878 22.429 67.0142 22.3498C67.252 22.2594 67.4388 22.186 67.5747 22.1294C67.7106 22.0616 67.8804 21.9825 68.0842 21.8921C68.2881 21.7904 68.4975 21.6774 68.7127 21.553C68.9391 21.4287 69.1146 21.3665 69.2392 21.3665C69.3071 21.3665 69.3694 21.3835 69.426 21.4174C69.4826 21.44 69.5279 21.4796 69.5619 21.5361C69.6072 21.5926 69.6412 21.6548 69.6638 21.7226C69.6865 21.7791 69.7034 21.8582 69.7148 21.9599C69.7374 22.0616 69.7487 22.1521 69.7487 22.2312C69.7601 22.3103 69.7657 22.412 69.7657 22.5363C69.7657 22.6607 69.7657 22.768 69.7657 22.8584C69.7657 22.9376 69.7601 23.0506 69.7487 23.1975C69.7487 23.3331 69.7487 23.4349 69.7487 23.5027C69.7374 24.0452 69.7317 25.3054 69.7317 27.2833Z" fill="#103A39"/>
<path d="M76.4398 27.2833C76.4398 27.5771 76.4964 27.8371 76.6096 28.0631C76.7229 28.2892 76.8474 28.4587 76.9833 28.5717C77.1305 28.6735 77.2551 28.7978 77.357 28.9447C77.4702 29.0803 77.5211 29.2216 77.5098 29.3685C77.4645 29.798 76.4681 30.0128 74.5205 30.0128C74.3167 30.0128 74.0846 30.0071 73.8242 29.9958C73.5751 29.9845 73.2637 29.9619 72.89 29.928C72.5164 29.8828 72.1993 29.815 71.9389 29.7246C71.6785 29.6228 71.5369 29.5042 71.5143 29.3685C71.4916 29.2216 71.5313 29.0803 71.6332 28.9447C71.7464 28.7978 71.871 28.6735 72.0068 28.5717C72.154 28.4587 72.2899 28.2892 72.4145 28.0631C72.539 27.8371 72.6013 27.5828 72.6013 27.3002V22.3159C72.6013 21.3213 72.4088 20.7845 72.0238 20.7054C71.82 20.6715 71.6671 20.5923 71.5652 20.468C71.4746 20.3324 71.4633 20.1911 71.5313 20.0442C71.5992 19.8973 71.7464 19.7899 71.9729 19.7221C72.0974 19.6882 72.3125 19.6203 72.6183 19.5186C72.924 19.4169 73.1278 19.3491 73.2297 19.3152C73.3316 19.2813 73.4958 19.2248 73.7223 19.1457C73.9601 19.0552 74.1469 18.9818 74.2828 18.9253C74.4186 18.8574 74.5885 18.7783 74.7923 18.6879C74.9961 18.5862 75.2056 18.4732 75.4207 18.3488C75.6472 18.2245 75.8227 18.1624 75.9472 18.1624C76.0152 18.1624 76.0775 18.1793 76.1341 18.2132C76.1907 18.2358 76.236 18.2754 76.2699 18.3319C76.3152 18.3884 76.3492 18.4506 76.3719 18.5184C76.3945 18.5749 76.4115 18.654 76.4228 18.7557C76.4455 18.8574 76.4568 18.9479 76.4568 19.027C76.4681 19.1061 76.4738 19.2078 76.4738 19.3321C76.4738 19.4565 76.4738 19.5638 76.4738 19.6543C76.4738 19.7334 76.4681 19.8464 76.4568 19.9933C76.4568 20.1289 76.4568 20.2307 76.4568 20.2985C76.4455 20.5697 76.4398 22.898 76.4398 27.2833Z" fill="#103A39"/>
<path d="M81.6706 20.9427C81.229 21.2931 80.6912 21.4683 80.0571 21.4683C79.423 21.4683 78.8795 21.2931 78.4265 20.9427C77.985 20.581 77.7641 20.1459 77.7641 19.6373C77.7641 19.14 77.985 18.7162 78.4265 18.3658C78.8795 18.0041 79.423 17.8233 80.0571 17.8233C80.6798 17.8233 81.212 18.0041 81.6536 18.3658C82.1065 18.7162 82.333 19.14 82.333 19.6373C82.333 20.1459 82.1122 20.581 81.6706 20.9427ZM82.1292 27.2833C82.1292 27.5771 82.1801 27.8371 82.282 28.0631C82.3953 28.2892 82.5198 28.4587 82.6557 28.5717C82.7916 28.6735 82.9048 28.7978 82.9954 28.9447C83.0973 29.0803 83.1426 29.2216 83.1313 29.3685C83.0973 29.798 82.1462 30.0128 80.2779 30.0128C80.0854 30.0128 79.8646 30.0071 79.6155 29.9958C79.3777 29.9845 79.0776 29.9619 78.7153 29.928C78.353 29.8828 78.0472 29.815 77.7981 29.7246C77.549 29.6228 77.4131 29.5042 77.3905 29.3685C77.3678 29.1877 77.4414 29.0182 77.6113 28.8599C77.7811 28.6904 77.9623 28.4813 78.1548 28.2327C78.3473 27.9727 78.4435 27.6619 78.4435 27.3002V25.571C78.4435 24.5764 78.2567 24.0395 77.883 23.9604C77.6792 23.9265 77.532 23.8474 77.4415 23.7231C77.3622 23.5874 77.3509 23.4518 77.4075 23.3162C77.4754 23.1693 77.617 23.0619 77.8321 22.9941C78.7266 22.7002 79.8306 22.3724 81.1441 22.0108C81.28 21.9769 81.3932 21.9599 81.4838 21.9599C81.6649 21.9599 81.8065 22.0221 81.9084 22.1464C82.0103 22.2594 82.0726 22.412 82.0952 22.6041C82.1292 22.785 82.1462 22.9997 82.1462 23.2484C82.1575 23.4857 82.1518 23.7287 82.1292 23.9774V27.2833Z" fill="#103A39"/>
<path d="M92.2846 26.5034C92.3638 26.3678 92.4827 26.3 92.6412 26.3C92.7884 26.3 92.913 26.3565 93.0149 26.4695C93.1168 26.5825 93.1451 26.7182 93.0998 26.8764C92.8394 27.8371 92.2676 28.6169 91.3844 29.216C90.5125 29.8037 89.5104 30.0975 88.3781 30.0975C87.0307 30.0975 85.8814 29.6963 84.9303 28.8938C83.9904 28.0914 83.5205 27.0685 83.5205 25.8253C83.5205 24.6159 83.9565 23.6157 84.8283 22.8245C85.7115 22.0334 86.7986 21.6095 88.0894 21.553C89.55 21.4852 90.654 21.6887 91.4014 22.1634C92.1487 22.6267 92.5733 23.1862 92.6752 23.8417C92.7431 24.3051 92.6695 24.7233 92.4544 25.0963C92.2506 25.4693 91.9505 25.7631 91.5542 25.9779C91.1692 26.1813 90.756 26.3395 90.3144 26.4526C89.8728 26.5543 89.4312 26.6051 88.9896 26.6051C88.48 26.6051 88.0837 26.5373 87.8006 26.4017C88.0837 26.8538 88.4347 27.2042 88.8537 27.4528C89.284 27.6902 89.7312 27.7919 90.1955 27.758C90.6031 27.7354 90.9937 27.611 91.3674 27.385C91.7411 27.159 92.0468 26.8651 92.2846 26.5034ZM88.2253 22.0955C87.8629 22.1294 87.5798 22.3951 87.376 22.8923C87.1835 23.3896 87.1043 23.8813 87.1382 24.3673C87.1722 24.8759 87.2854 25.3562 87.4779 25.8083C87.6591 25.8309 87.795 25.8422 87.8856 25.8422C88.3158 25.8422 88.6725 25.6671 88.9556 25.3167C89.2387 24.955 89.3745 24.4577 89.3632 23.8248C89.3519 23.3727 89.2387 22.9658 89.0235 22.6041C88.8197 22.2312 88.5536 22.0616 88.2253 22.0955Z" fill="#103A39"/>
</svg>
