<svg width="155" height="48" viewBox="0 0 155 48" fill="none" xmlns="http://www.w3.org/2000/svg">
<path d="M27.0096 7.67539C27.0435 7.97993 26.9166 8.25909 26.629 8.51288C26.3582 8.76667 26.0283 9.08813 25.6392 9.47727C25.25 9.86641 24.9793 10.3401 24.8271 10.8985L21.604 22.1666C21.4855 22.5557 21.2656 22.8772 20.9441 23.131C20.6227 23.3848 20.2589 23.5117 19.8529 23.5117H18.8631C18.4909 23.5117 18.144 23.4017 17.8226 23.1817C17.518 22.9618 17.2981 22.6742 17.1627 22.3189C16.9259 21.6759 16.4183 20.2632 15.64 18.0806C14.8786 15.8981 14.3119 14.333 13.9396 13.3856L11.0718 22.2681C10.9703 22.6403 10.7673 22.9449 10.4628 23.1817C10.1582 23.4017 9.81984 23.5117 9.44762 23.5117L8.22944 23.4863C7.46808 23.4524 6.96051 23.0718 6.70672 22.3442C6.3345 21.346 5.85231 19.9671 5.26014 18.2075C4.66797 16.431 4.1181 14.7983 3.61053 13.3094C3.11988 11.8036 2.86609 11.0254 2.84917 10.9746C2.67998 10.5178 2.43465 10.1202 2.11319 9.78181C1.80865 9.42651 1.52948 9.17273 1.2757 9.02045C1.02191 8.86818 0.818881 8.68207 0.666609 8.46212C0.514337 8.24218 0.480499 7.98839 0.565094 7.70077C0.751204 7.024 2.14703 6.68562 4.75257 6.68562C8.13639 6.68562 9.87059 7.024 9.95519 7.70077C9.98903 7.92071 9.89597 8.19142 9.67602 8.51288C9.45608 8.83434 9.27843 9.14735 9.14307 9.45189C9.02464 9.73952 9.06694 10.2471 9.26997 10.9746L10.7673 15.695C11.038 14.9168 11.5117 13.4956 12.1885 11.4314C12.8822 9.3673 13.2629 8.24218 13.3305 8.05607C13.449 7.65001 13.6774 7.32854 14.0158 7.09168C14.3542 6.83789 14.7264 6.70254 15.1324 6.68562H16.2491C16.6382 6.68562 17.002 6.80405 17.3404 7.04092C17.6788 7.27779 17.9156 7.58233 18.051 7.95455L21.071 16.1519C21.2402 15.5597 21.4433 14.8491 21.6801 14.02C21.917 13.191 22.1116 12.5058 22.2638 11.9644C22.433 11.423 22.543 11.0592 22.5937 10.8731C22.746 10.3994 22.7545 9.9933 22.6191 9.65492C22.5007 9.31654 22.34 9.06275 22.1369 8.89356C21.9339 8.72437 21.7309 8.5298 21.5278 8.30985C21.3248 8.0899 21.2233 7.86996 21.2233 7.65001C21.2233 6.92249 22.2892 6.59257 24.421 6.66024C24.9624 6.66024 25.5123 6.74484 26.0706 6.91403C26.6459 7.0663 26.9589 7.32009 27.0096 7.67539Z" fill="white"/>
<path d="M33.1618 9.95946C32.5019 10.484 31.6983 10.7462 30.7508 10.7462C29.8033 10.7462 28.9912 10.484 28.3144 9.95946C27.6546 9.41805 27.3247 8.76667 27.3247 8.00531C27.3247 7.26087 27.6546 6.6264 28.3144 6.10191C28.9912 5.5605 29.8033 5.28979 30.7508 5.28979C31.6813 5.28979 32.4765 5.5605 33.1364 6.10191C33.8132 6.6264 34.1515 7.26087 34.1515 8.00531C34.1515 8.76667 33.8216 9.41805 33.1618 9.95946ZM33.847 19.4511C33.847 19.891 33.9231 20.2801 34.0754 20.6185C34.2446 20.9569 34.4307 21.2107 34.6337 21.3798C34.8368 21.5321 35.0059 21.7182 35.1413 21.9382C35.2936 22.1412 35.3612 22.3527 35.3443 22.5726C35.2936 23.2156 33.8724 23.537 31.0807 23.537C30.7931 23.537 30.4632 23.5286 30.091 23.5117C29.7357 23.4947 29.2873 23.4609 28.7459 23.4101C28.2045 23.3425 27.7477 23.2409 27.3754 23.1056C27.0032 22.9533 26.8002 22.7757 26.7664 22.5726C26.7325 22.3019 26.8425 22.0482 27.0963 21.8113C27.3501 21.5575 27.6208 21.2445 27.9084 20.8723C28.196 20.4831 28.3398 20.0179 28.3398 19.4765V16.8878C28.3398 15.399 28.0607 14.5953 27.5023 14.4769C27.1978 14.4261 26.9778 14.3077 26.8425 14.1216C26.7241 13.9185 26.7071 13.7155 26.7917 13.5125C26.8932 13.2925 27.1047 13.1318 27.4262 13.0303C28.7628 12.5904 30.4124 12.0997 32.375 11.5583C32.5781 11.5076 32.7472 11.4822 32.8826 11.4822C33.1533 11.4822 33.3648 11.5752 33.5171 11.7613C33.6693 11.9305 33.7624 12.1589 33.7962 12.4466C33.847 12.7173 33.8724 13.0387 33.8724 13.411C33.8893 13.7663 33.8808 14.13 33.847 14.5022V19.4511Z" fill="white"/>
<path d="M43.4219 12.0151H45.5029C45.6383 12.0151 45.7567 12.0659 45.8582 12.1674C45.9597 12.2689 46.0105 12.3874 46.0105 12.5227V13.1064C46.0105 13.2418 45.9597 13.3602 45.8582 13.4617C45.7567 13.5632 45.6383 13.614 45.5029 13.614H43.4219V17.7507C43.4219 17.8691 43.4134 18.1145 43.3965 18.4867C43.3965 18.842 43.3965 19.0958 43.3965 19.248C43.4134 19.4003 43.4303 19.6203 43.4473 19.9079C43.4642 20.1955 43.498 20.4155 43.5488 20.5677C43.6164 20.7031 43.6926 20.8638 43.7772 21.0499C43.8618 21.2191 43.9802 21.346 44.1325 21.4306C44.2847 21.4983 44.4624 21.5406 44.6654 21.5575C44.8346 21.5575 44.9531 21.5406 45.0207 21.5067C45.3084 21.4221 45.5368 21.5067 45.706 21.7605C45.8921 21.9974 45.8921 22.2258 45.706 22.4458C45.0292 23.2071 44.0563 23.647 42.7874 23.7654C41.1293 23.9177 39.8266 23.6385 38.8791 22.9279C37.9316 22.2173 37.4494 21.1514 37.4325 19.7302C37.4325 19.5441 37.4325 19.0619 37.4325 18.2837C37.4325 17.4885 37.4325 16.5748 37.4325 15.5428C37.4325 14.4938 37.4325 13.8509 37.4325 13.614H36.2143C36.079 13.614 35.9606 13.5632 35.859 13.4617C35.7575 13.3602 35.7068 13.2418 35.7068 13.1064V12.5227C35.7068 12.3874 35.7575 12.2689 35.859 12.1674C35.9606 12.0659 36.079 12.0151 36.2143 12.0151C38.0585 11.8967 40.0465 10.3401 42.1783 7.34546C42.3137 7.15935 42.4998 7.0663 42.7367 7.0663C42.9228 7.0663 43.0835 7.12552 43.2188 7.24395C43.3542 7.36238 43.4219 7.51466 43.4219 7.70077V12.0151Z" fill="white"/>
<path d="M63.0842 19.4511C63.0842 19.891 63.1688 20.2801 63.338 20.6185C63.5071 20.9569 63.6933 21.2107 63.8963 21.3798C64.0993 21.5321 64.277 21.7182 64.4292 21.9382C64.5984 22.1412 64.6746 22.3527 64.6576 22.5726C64.6069 23.2156 63.1265 23.537 60.2164 23.537C59.7088 23.537 59.2689 23.4524 58.8967 23.2832C58.5414 23.1141 58.2622 22.911 58.0592 22.6742C57.8731 22.4204 57.7208 22.0989 57.6024 21.7098C57.5009 21.3206 57.4332 20.9653 57.3994 20.6439C57.3655 20.3055 57.3486 19.9163 57.3486 19.4765V16.8878C57.3486 16.8202 57.3486 16.7271 57.3486 16.6087C57.3486 16.0673 57.3401 15.6527 57.3232 15.3651C57.3063 15.0606 57.264 14.7137 57.1963 14.3246C57.1456 13.9185 57.0356 13.6224 56.8664 13.4363C56.6972 13.2502 56.4773 13.1572 56.2066 13.1572C55.5298 13.1572 55.0222 13.5379 54.6838 14.2992C54.3624 15.0606 54.2016 15.8981 54.2016 16.8117V19.4511C54.2016 19.891 54.2862 20.2801 54.4554 20.6185C54.6246 20.9569 54.8107 21.2107 55.0138 21.3798C55.2337 21.5321 55.4198 21.7182 55.5721 21.9382C55.7413 22.1412 55.8174 22.3527 55.8005 22.5726C55.7328 23.2156 54.2439 23.537 51.3339 23.537C51.0293 23.537 50.6825 23.5286 50.2933 23.5117C49.9211 23.4947 49.4558 23.4609 48.8975 23.4101C48.3392 23.3425 47.8654 23.2409 47.4763 23.1056C47.0872 22.9533 46.8757 22.7757 46.8418 22.5726C46.808 22.3527 46.8672 22.1412 47.0195 21.9382C47.1887 21.7182 47.3748 21.5321 47.5778 21.3798C47.7978 21.2107 48.0008 20.9569 48.1869 20.6185C48.373 20.2801 48.4661 19.8994 48.4661 19.4765V12.0151C48.4661 10.5263 48.1784 9.7226 47.6032 9.60416C47.2987 9.55341 47.0703 9.43497 46.918 9.24886C46.7826 9.04583 46.7657 8.83434 46.8672 8.6144C46.9687 8.39445 47.1887 8.23372 47.5271 8.1322C47.7132 8.08144 48.0346 7.97993 48.4915 7.82766C48.9483 7.67539 49.2528 7.57387 49.4051 7.52311C49.5574 7.47236 49.8027 7.38776 50.1411 7.26933C50.4964 7.13398 50.7755 7.024 50.9786 6.93941C51.1816 6.83789 51.4354 6.71946 51.7399 6.58411C52.0445 6.43183 52.3575 6.26264 52.6789 6.07653C53.0173 5.89042 53.2796 5.79737 53.4657 5.79737C53.5672 5.79737 53.6602 5.82275 53.7448 5.8735C53.8294 5.90734 53.8971 5.96656 53.9479 6.05115C54.0155 6.13575 54.0663 6.2288 54.1001 6.33032C54.134 6.41491 54.1594 6.53335 54.1763 6.68562C54.2101 6.83789 54.227 6.97324 54.227 7.09168C54.2439 7.21011 54.2524 7.36238 54.2524 7.54849C54.2524 7.7346 54.2524 7.89533 54.2524 8.03069C54.2524 8.14912 54.2439 8.31831 54.227 8.53826C54.227 8.74129 54.227 8.89356 54.227 8.99508C54.2101 9.38421 54.2016 10.7885 54.2016 13.2079C54.8953 11.9052 56.0543 11.1523 57.6785 10.9492C59.2351 10.7631 60.5209 11.0507 61.5361 11.8121C62.5681 12.5735 63.0842 13.614 63.0842 14.9337V19.4511Z" fill="white"/>
<path d="M82.3671 16.3803C83.1284 16.3803 83.5091 17.5815 83.5091 19.984C83.5091 21.7436 83.1792 22.7757 82.5193 23.0802C81.8426 23.3678 79.3047 23.5117 74.9057 23.5117C74.5504 23.5117 74.0852 23.4947 73.5099 23.4609C72.9516 23.444 72.2579 23.4101 71.4289 23.3594C70.6168 23.2917 69.9231 23.1902 69.3478 23.0548C68.7895 22.9195 68.4934 22.7503 68.4596 22.5473C68.4088 22.2766 68.5103 22.0143 68.7641 21.7605C69.0348 21.5067 69.314 21.1937 69.6016 20.8215C69.9062 20.4324 70.0584 19.9671 70.0584 19.4257V10.7462C70.0584 10.2048 69.9062 9.74798 69.6016 9.37575C69.314 8.98662 69.0348 8.67361 68.7641 8.43675C68.5103 8.18296 68.4088 7.92071 68.4596 7.65001C68.4934 7.44698 68.7049 7.27779 69.094 7.14244C69.5001 6.99016 69.9823 6.88865 70.5406 6.83789C71.1159 6.77021 71.6065 6.72792 72.0126 6.711C72.4186 6.67716 72.7655 6.66024 73.0531 6.66024C76.0309 6.66024 77.5536 6.99016 77.6213 7.65001C77.6382 7.86996 77.562 8.0899 77.3929 8.30985C77.2406 8.51288 77.0545 8.69053 76.8345 8.8428C76.6315 8.99507 76.4454 9.2404 76.2762 9.57878C76.107 9.91717 76.0224 10.3063 76.0224 10.7462V19.4257C76.0224 20.3055 76.1408 20.9315 76.3777 21.3037C76.6146 21.6759 76.9783 21.879 77.469 21.9128H78.7125C79.2032 21.9128 79.6262 21.7267 79.9815 21.3545C80.3368 20.9653 80.6075 20.5001 80.7936 19.9586C80.9797 19.4172 81.1404 18.8758 81.2758 18.3344C81.4111 17.793 81.5634 17.3362 81.7326 16.964C81.9187 16.5748 82.1302 16.3803 82.3671 16.3803Z" fill="white"/>
<path d="M91.8811 10.9746C93.979 10.9746 95.764 11.5752 97.236 12.7765C98.7248 13.9608 99.4693 15.4751 99.4693 17.3193C99.4693 19.1634 98.7248 20.6862 97.236 21.8874C95.764 23.0718 93.979 23.6639 91.8811 23.6639C89.7662 23.6639 87.9728 23.0718 86.5008 21.8874C85.0288 20.7031 84.2929 19.1804 84.2929 17.3193C84.2929 15.4582 85.0288 13.9354 86.5008 12.7511C87.9728 11.5668 89.7662 10.9746 91.8811 10.9746ZM93.3023 22.0651C94.3343 21.8282 94.4189 20.094 93.5561 16.8625C92.7439 13.7155 91.7457 12.2858 90.5614 12.5735C89.5632 12.8103 89.4701 14.553 90.2822 17.8015C90.6206 19.1888 91.052 20.2886 91.5765 21.1007C92.1179 21.8959 92.6932 22.2173 93.3023 22.0651Z" fill="white"/>
<path d="M113.618 10.8985C114.177 10.8985 114.726 10.9831 115.268 11.1523C115.826 11.3045 116.097 11.5583 116.08 11.9136C116.063 12.2012 115.902 12.4719 115.598 12.7257C115.293 12.9795 114.913 13.3094 114.456 13.7155C114.016 14.1046 113.677 14.5699 113.441 15.1113L110.395 22.2681C110.226 22.6572 109.964 22.9702 109.608 23.2071C109.253 23.444 108.864 23.5624 108.441 23.5624H106.918C106.495 23.5624 106.106 23.4524 105.751 23.2325C105.413 22.9956 105.15 22.6826 104.964 22.2935C104.626 21.549 104.203 20.6185 103.695 19.5018C103.188 18.3852 102.748 17.4208 102.376 16.6087C102.003 15.7796 101.783 15.2805 101.716 15.1113C101.462 14.553 101.124 14.0793 100.701 13.6901C100.278 13.301 99.9561 12.9964 99.7362 12.7765C99.5162 12.5396 99.4401 12.2435 99.5078 11.8882C99.6431 11.2115 100.895 10.8731 103.264 10.8731C106.292 10.8731 107.917 11.2115 108.136 11.8882C108.204 12.1082 108.12 12.3704 107.883 12.675C107.663 12.9795 107.477 13.2841 107.324 13.5886C107.189 13.8932 107.248 14.4007 107.502 15.1113L109.532 20.1363C109.871 19.3749 110.268 18.3598 110.725 17.0909C111.199 15.8219 111.444 15.1621 111.461 15.1113C111.715 14.3669 111.757 13.8593 111.588 13.5886C111.419 13.3179 111.19 13.0387 110.903 12.7511C110.615 12.4466 110.488 12.1589 110.522 11.8882C110.607 11.2284 111.639 10.8985 113.618 10.8985Z" fill="white"/>
<path d="M129.459 18.2837C129.577 18.0806 129.755 17.9791 129.991 17.9791C130.211 17.9791 130.398 18.0637 130.55 18.2329C130.702 18.4021 130.744 18.6051 130.677 18.842C130.288 20.2801 129.433 21.4475 128.113 22.3442C126.811 23.224 125.313 23.6639 123.621 23.6639C121.608 23.6639 119.891 23.0633 118.47 21.862C117.065 20.6608 116.363 19.1296 116.363 17.2685C116.363 15.4582 117.015 13.9608 118.317 12.7765C119.637 11.5922 121.261 10.9577 123.19 10.8731C125.373 10.7716 127.022 11.0761 128.139 11.7867C129.255 12.4804 129.89 13.3179 130.042 14.2992C130.144 14.9929 130.034 15.6189 129.712 16.1772C129.408 16.7356 128.959 17.1755 128.367 17.4969C127.792 17.8015 127.174 18.0383 126.515 18.2075C125.855 18.3598 125.195 18.4359 124.535 18.4359C123.774 18.4359 123.182 18.3344 122.759 18.1314C123.182 18.8081 123.706 19.3326 124.332 19.7049C124.975 20.0602 125.643 20.2124 126.337 20.1617C126.946 20.1278 127.53 19.9417 128.088 19.6033C128.646 19.265 129.103 18.8251 129.459 18.2837ZM123.393 11.6852C122.852 11.736 122.429 12.1336 122.124 12.878C121.836 13.6224 121.718 14.3584 121.769 15.0859C121.82 15.8473 121.989 16.5664 122.276 17.2431C122.547 17.277 122.75 17.2939 122.885 17.2939C123.528 17.2939 124.061 17.0316 124.484 16.5072C124.907 15.9657 125.11 15.2213 125.093 14.2738C125.076 13.5971 124.907 12.988 124.586 12.4466C124.281 11.8882 123.884 11.6345 123.393 11.6852Z" fill="white"/>
<path d="M15.6065 29.6139C15.6065 29.6458 15.6065 29.7016 15.6065 29.7814C15.6065 30.1005 15.5985 30.3638 15.5825 30.5712C15.5825 30.7627 15.5506 31.018 15.4868 31.3371C15.4389 31.6562 15.3432 31.9036 15.1996 32.0791C15.056 32.2386 14.8725 32.3184 14.6491 32.3184C14.3778 32.3184 14.1385 32.095 13.9311 31.6483C13.7236 31.2015 13.5481 30.7069 13.4045 30.1643C13.2609 29.6059 12.9976 29.1033 12.6147 28.6565C12.2477 28.1938 11.777 27.9624 11.2026 27.9624H8.95275C8.10708 28.0581 7.68424 28.832 7.68424 30.284V34.0896H7.80391C8.26664 34.0896 8.64958 34.0098 8.95275 33.8502C9.27187 33.6747 9.50324 33.4673 9.64684 33.2279C9.8064 32.9726 9.93405 32.7253 10.0298 32.486C10.1415 32.2466 10.2691 32.0472 10.4127 31.8876C10.5723 31.7121 10.7638 31.6243 10.9872 31.6243C11.1148 31.6243 11.2265 31.6483 11.3222 31.6961C11.418 31.728 11.4898 31.7919 11.5376 31.8876C11.6015 31.9674 11.6493 32.0472 11.6812 32.127C11.7291 32.1908 11.753 32.3025 11.753 32.462C11.769 32.6056 11.777 32.7173 11.777 32.7971C11.777 32.8609 11.777 32.9806 11.777 33.1561C11.777 33.3316 11.777 33.4433 11.777 33.4912V36.1958C11.777 36.2436 11.777 36.3553 11.777 36.5308C11.777 36.7064 11.777 36.834 11.777 36.9138C11.777 36.9776 11.769 37.0893 11.753 37.2489C11.753 37.3925 11.7291 37.5042 11.6812 37.5839C11.6493 37.6478 11.6015 37.7276 11.5376 37.8233C11.4898 37.9031 11.418 37.9669 11.3222 38.0148C11.2265 38.0467 11.1148 38.0626 10.9872 38.0626C10.7638 38.0626 10.5723 37.9828 10.4127 37.8233C10.2691 37.6478 10.1415 37.4403 10.0298 37.201C9.93405 36.9617 9.8064 36.7223 9.64684 36.483C9.50324 36.2436 9.27187 36.0442 8.95275 35.8846C8.64958 35.7091 8.26664 35.6213 7.80391 35.6213H7.68424V38.4934C7.68424 38.9083 7.76402 39.2753 7.92358 39.5944C8.08314 39.9135 8.25866 40.1529 8.45013 40.3124C8.65756 40.456 8.83308 40.6316 8.97668 40.839C9.13624 41.0305 9.20805 41.2299 9.19209 41.4374C9.12827 42.0437 7.69222 42.3469 4.88394 42.3469C4.61268 42.3469 4.28558 42.3309 3.90264 42.299C3.51969 42.283 3.05696 42.2511 2.51445 42.2032C1.9879 42.1394 1.53315 42.0437 1.1502 41.916C0.783214 41.7884 0.583762 41.6288 0.55185 41.4374C0.503981 41.1821 0.599718 40.9347 0.83906 40.6954C1.09436 40.4561 1.35763 40.1609 1.62889 39.8098C1.9161 39.4428 2.0597 39.004 2.0597 38.4934V30.284C2.0597 29.7734 1.9161 29.3426 1.62889 28.9916C1.35763 28.6246 1.09436 28.3214 0.83906 28.0821C0.599718 27.8427 0.503981 27.5954 0.55185 27.3401C0.583762 27.1486 0.870972 26.9891 1.41348 26.8614C1.97194 26.7178 2.6421 26.6221 3.42395 26.5742C4.22176 26.5104 4.87596 26.4705 5.38656 26.4545C5.91311 26.4386 6.34392 26.4306 6.679 26.4306C11.402 26.4306 14.0986 26.5742 14.7688 26.8614C15.3272 27.1008 15.6065 28.0182 15.6065 29.6139Z" fill="white"/>
<path d="M23.3609 38.5174C23.3609 38.9322 23.4407 39.2992 23.6003 39.6184C23.7598 39.9375 23.9354 40.1768 24.1268 40.3364C24.3343 40.48 24.5098 40.6555 24.6534 40.8629C24.797 41.0544 24.8608 41.2539 24.8449 41.4613C24.797 42.0676 23.4327 42.3708 20.7521 42.3708C20.4649 42.3708 20.1378 42.3628 19.7708 42.3469C19.4198 42.3309 18.981 42.299 18.4544 42.2511C17.9279 42.1873 17.4811 42.0916 17.1141 41.9639C16.7471 41.8203 16.5477 41.6528 16.5158 41.4613C16.4839 41.2539 16.5397 41.0544 16.6833 40.8629C16.8429 40.6555 17.0184 40.472 17.2099 40.3124C17.4173 40.1529 17.6088 39.9135 17.7843 39.5944C17.9598 39.2753 18.0476 38.9163 18.0476 38.5174V36.1C18.0476 34.6959 17.7763 33.938 17.2338 33.8263C16.9466 33.7784 16.7312 33.6667 16.5876 33.4912C16.4599 33.2997 16.444 33.1083 16.5397 32.9168C16.6354 32.7094 16.8429 32.5578 17.162 32.462C18.1832 32.127 18.9571 31.8397 19.4836 31.6004C20.0102 31.3451 20.6005 30.9781 21.2547 30.4994C21.5579 30.292 21.8132 30.1883 22.0206 30.1883C22.4834 30.1883 22.8344 30.7787 23.0737 31.9594C23.4407 31.0978 23.9194 30.292 24.5098 29.5421C25.1161 28.7762 25.8421 28.0581 26.6878 27.388C27.5494 26.7178 28.5706 26.1833 29.7514 25.7844C30.9481 25.3855 32.2326 25.1701 33.6048 25.1382C34.5302 25.1222 35.2483 25.3137 35.7589 25.7126C36.2854 26.1115 36.5327 26.6061 36.5008 27.1965C36.4849 27.7231 36.2615 28.1619 35.8307 28.5129C35.4158 28.8639 34.8892 28.9756 34.251 28.848C33.9797 28.7841 33.6606 28.6725 33.2936 28.5129C32.9426 28.3374 32.5756 28.2177 32.1927 28.1539C31.8257 28.0741 31.339 28.0661 30.7327 28.1299C29.9508 28.2257 29.177 28.4491 28.4111 28.8001C27.6611 29.1511 26.9192 29.6378 26.1852 30.2601C25.4672 30.8824 24.8528 31.7121 24.3422 32.7492C23.8316 33.7704 23.5045 34.9273 23.3609 36.2197V38.5174ZM32.6474 30.4994C34.6419 30.4994 36.3333 31.0579 37.7215 32.1748C39.1096 33.2917 39.8037 34.7278 39.8037 36.483C39.8037 38.2381 39.1096 39.6822 37.7215 40.8151C36.3333 41.932 34.6419 42.4905 32.6474 42.4905C30.6689 42.4905 28.9775 41.932 27.5734 40.8151C26.1852 39.6822 25.4911 38.2381 25.4911 36.483C25.4911 34.7438 26.1852 33.3157 27.5734 32.1988C28.9775 31.0659 30.6689 30.4994 32.6474 30.4994ZM33.9877 40.9826C34.3707 40.8869 34.61 40.5837 34.7057 40.0731C34.8174 39.5466 34.8254 38.9801 34.7297 38.3738C34.6499 37.7515 34.4903 36.9856 34.251 36.0761C33.4532 33.1083 32.5038 31.76 31.4028 32.0312C31.0199 32.127 30.7726 32.4301 30.6609 32.9407C30.5651 33.4354 30.5651 34.0018 30.6609 34.64C30.7566 35.2623 30.9162 36.0362 31.1396 36.9617C31.4587 38.2541 31.8656 39.2833 32.3602 40.0492C32.8708 40.8151 33.4133 41.1262 33.9877 40.9826Z" fill="white"/>
<path d="M63.0143 38.5174C63.0143 38.9322 63.0941 39.2992 63.2536 39.6184C63.4132 39.9375 63.5887 40.1768 63.7802 40.3364C63.9876 40.48 64.1631 40.6555 64.3067 40.8629C64.4503 41.0544 64.5142 41.2539 64.4982 41.4613C64.4503 42.0676 63.0542 42.3708 60.3097 42.3708C59.831 42.3708 59.4162 42.291 59.0651 42.1314C58.7301 41.9719 58.4668 41.7804 58.2753 41.557C58.0998 41.3177 57.9562 41.0145 57.8445 40.6475C57.7488 40.2805 57.6849 39.9455 57.653 39.6423C57.6211 39.3232 57.6052 38.9562 57.6052 38.5413V36.1C57.6052 34.6161 57.5333 33.6747 57.3897 33.2758C57.1983 32.829 56.9111 32.5977 56.5281 32.5817C55.7144 32.5977 55.2915 33.5949 55.2596 35.5735V38.5174C55.2596 38.9322 55.3394 39.2992 55.4989 39.6184C55.6585 39.9375 55.834 40.1768 56.0255 40.3364C56.217 40.48 56.3845 40.6555 56.5281 40.8629C56.6877 41.0544 56.7595 41.2539 56.7435 41.4613C56.6957 42.0676 55.2995 42.3708 52.555 42.3708C52.0764 42.3708 51.6615 42.291 51.3105 42.1314C50.9754 41.9719 50.7121 41.7804 50.5206 41.557C50.3451 41.3177 50.2015 41.0145 50.0898 40.6475C49.9941 40.2805 49.9303 39.9455 49.8983 39.6423C49.8664 39.3232 49.8505 38.9562 49.8505 38.5413V36.1C49.8505 36.0362 49.8505 35.9484 49.8505 35.8368C49.8505 35.3262 49.8425 34.9352 49.8265 34.664C49.8106 34.3768 49.7707 34.0497 49.7069 33.6827C49.659 33.2997 49.5553 33.0205 49.3957 32.845C49.2362 32.6695 49.0287 32.5817 48.7734 32.5817C47.9916 32.5977 47.5688 33.547 47.5049 35.4299V38.5174C47.5049 38.9322 47.5847 39.2992 47.7443 39.6184C47.9038 39.9375 48.0793 40.1768 48.2708 40.3364C48.4783 40.48 48.6538 40.6555 48.7974 40.8629C48.941 41.0544 49.0048 41.2539 48.9888 41.4613C48.941 42.0676 47.5767 42.3708 44.8961 42.3708C44.6089 42.3708 44.2818 42.3628 43.9148 42.3469C43.5638 42.3309 43.125 42.299 42.5984 42.2511C42.0719 42.1873 41.6251 42.0916 41.2581 41.9639C40.8911 41.8203 40.6917 41.6528 40.6598 41.4613C40.6278 41.2539 40.6837 41.0544 40.8273 40.8629C40.9869 40.6555 41.1624 40.48 41.3538 40.3364C41.5613 40.1768 41.7527 39.9375 41.9283 39.6184C42.1038 39.2992 42.1915 38.9402 42.1915 38.5413V36.1C42.1915 34.6959 41.9203 33.9459 41.3778 33.8502C41.0906 33.7864 40.8752 33.6667 40.7316 33.4912C40.6039 33.2997 40.5879 33.1083 40.6837 32.9168C40.7794 32.7094 40.9869 32.5578 41.306 32.462C42.3272 32.127 43.101 31.8397 43.6276 31.6004C44.1541 31.3451 44.7445 30.9781 45.3987 30.4994C45.7019 30.292 45.9572 30.1883 46.1646 30.1883C46.6273 30.1883 47.0023 30.8904 47.2895 32.2945C47.3055 32.3902 47.3214 32.462 47.3374 32.5099C47.9597 31.3451 48.9569 30.6749 50.3292 30.4994C51.494 30.3558 52.4912 30.4675 53.3209 30.8345C54.1666 31.1855 54.741 31.76 55.0442 32.5578C55.6186 31.3291 56.576 30.643 57.9163 30.4994C59.4002 30.3399 60.6209 30.6191 61.5782 31.3371C62.5356 32.0392 63.0143 33.0125 63.0143 34.2571V38.5174Z" fill="white"/>
<path d="M82.5155 27.388C82.5634 27.6433 82.4756 27.8906 82.2522 28.1299C82.0288 28.3693 81.7895 28.6725 81.5342 29.0394C81.2789 29.4064 81.1512 29.8452 81.1512 30.3558V36.842C81.1512 38.8365 80.4571 40.3204 79.069 41.2937C77.6808 42.2511 75.9176 42.7298 73.7795 42.7298C71.8329 42.7298 70.2133 42.2511 68.9209 41.2937C67.6444 40.3204 66.9662 39.1157 66.8865 37.6797C66.8545 36.7064 67.1338 35.8607 67.7242 35.1427C68.3145 34.4246 69.0724 34.0576 69.9979 34.0417C70.8436 34.0257 71.5137 34.2571 72.0084 34.7358C72.503 35.1985 72.7104 35.7809 72.6307 36.483C72.5988 36.7861 72.3993 37.209 72.0323 37.7515C71.6653 38.294 71.4818 38.8684 71.4818 39.4747C71.4818 40.097 71.6813 40.5518 72.0802 40.839C72.4791 41.1103 72.9019 41.2299 73.3487 41.198C74.0827 41.1661 74.6252 40.831 74.9762 40.1928C75.3432 39.5545 75.5267 38.5174 75.5267 37.0813V30.3558C75.5267 29.925 75.4389 29.55 75.2634 29.2309C75.0879 28.9118 74.8885 28.6804 74.6651 28.5368C74.4576 28.3773 74.2662 28.2017 74.0907 28.0103C73.9311 27.8028 73.8593 27.5954 73.8752 27.388C73.9231 26.7657 75.3592 26.4545 78.1834 26.4545C78.4547 26.4545 78.7738 26.4705 79.1408 26.5024C79.5237 26.5184 79.9864 26.5583 80.5289 26.6221C81.0714 26.67 81.5262 26.7657 81.8932 26.9093C82.2761 27.0369 82.4836 27.1965 82.5155 27.388Z" fill="white"/>
<path d="M97.8549 38.5174C97.8549 38.9322 97.9347 39.2992 98.0942 39.6184C98.2538 39.9375 98.4293 40.1688 98.6208 40.3124C98.8282 40.456 99.0037 40.6316 99.1473 40.839C99.3069 41.0305 99.3787 41.2299 99.3627 41.4374C99.2989 42.0596 97.8948 42.3708 95.1503 42.3708C93.6824 42.3708 92.8207 41.6448 92.5654 40.1928C91.8793 41.4852 90.7704 42.2272 89.2386 42.4187C87.7547 42.6101 86.526 42.3468 85.5527 41.6288C84.5953 40.9108 84.1167 39.9295 84.1167 38.6849V36.0043C84.1167 34.6161 83.8454 33.8662 83.3029 33.7545C83.0157 33.7066 82.8003 33.5949 82.6567 33.4194C82.529 33.2279 82.5131 33.0285 82.6088 32.821C82.7045 32.6136 82.912 32.462 83.2311 32.3663C83.4066 32.3184 83.7098 32.2227 84.1406 32.0791C84.5714 31.9355 84.8586 31.8397 85.0022 31.7919C85.1458 31.744 85.3772 31.6642 85.6963 31.5525C86.0314 31.4249 86.2947 31.3212 86.4861 31.2414C86.6776 31.1457 86.917 31.034 87.2042 30.9063C87.4914 30.7627 87.7866 30.6031 88.0897 30.4276C88.4089 30.2521 88.6562 30.1643 88.8317 30.1643C88.9274 30.1643 89.0152 30.1883 89.095 30.2362C89.1748 30.2681 89.2386 30.3239 89.2865 30.4037C89.3503 30.4835 89.3981 30.5712 89.4301 30.667C89.462 30.7467 89.4859 30.8584 89.5019 31.002C89.5338 31.1457 89.5497 31.2733 89.5497 31.385C89.5657 31.4967 89.5737 31.6403 89.5737 31.8158C89.5737 31.9913 89.5737 32.1429 89.5737 32.2706C89.5737 32.3823 89.5657 32.5418 89.5497 32.7492C89.5497 32.9407 89.5497 33.0843 89.5497 33.1801V36.842C89.5497 38.3259 89.6215 39.2673 89.7651 39.6662C89.9566 40.097 90.2438 40.3204 90.6268 40.3364C91.1693 40.3364 91.5921 40.0731 91.8953 39.5466C92.1984 39.02 92.3819 38.3818 92.4458 37.6318V36.0043C92.4458 34.6161 92.1745 33.8662 91.632 33.7545C91.3448 33.7066 91.1294 33.5949 90.9858 33.4194C90.8581 33.2279 90.8422 33.0285 90.9379 32.821C91.0336 32.6136 91.2411 32.462 91.5602 32.3663C91.7357 32.3184 92.0389 32.2227 92.4697 32.0791C92.9005 31.9355 93.1877 31.8397 93.3313 31.7919C93.4749 31.744 93.7063 31.6642 94.0254 31.5525C94.3605 31.4249 94.6238 31.3212 94.8152 31.2414C95.0067 31.1457 95.2461 31.034 95.5333 30.9063C95.8205 30.7627 96.1157 30.6031 96.4188 30.4276C96.738 30.2521 96.9853 30.1643 97.1608 30.1643C97.2565 30.1643 97.3443 30.1883 97.4241 30.2362C97.5039 30.2681 97.5677 30.3239 97.6155 30.4037C97.6794 30.4835 97.7272 30.5712 97.7592 30.667C97.7911 30.7467 97.815 30.8584 97.831 31.002C97.8629 31.1457 97.8788 31.2733 97.8788 31.385C97.8948 31.4967 97.9028 31.6403 97.9028 31.8158C97.9028 31.9913 97.9028 32.1429 97.9028 32.2706C97.9028 32.3823 97.8948 32.5418 97.8788 32.7492C97.8788 32.9407 97.8788 33.0843 97.8788 33.1801C97.8629 33.9459 97.8549 35.7251 97.8549 38.5174Z" fill="white"/>
<path d="M107.308 38.5174C107.308 38.9322 107.387 39.2992 107.547 39.6184C107.707 39.9375 107.882 40.1768 108.074 40.3364C108.281 40.48 108.457 40.6555 108.6 40.8629C108.76 41.0544 108.832 41.2539 108.816 41.4613C108.752 42.0676 107.348 42.3708 104.603 42.3708C104.316 42.3708 103.989 42.3628 103.622 42.3469C103.271 42.3309 102.832 42.299 102.305 42.2511C101.779 42.1873 101.332 42.0916 100.965 41.9639C100.598 41.8203 100.399 41.6528 100.367 41.4613C100.335 41.2539 100.391 41.0544 100.534 40.8629C100.694 40.6555 100.869 40.48 101.061 40.3364C101.268 40.1768 101.46 39.9375 101.635 39.6184C101.811 39.2992 101.899 38.9402 101.899 38.5413V31.5047C101.899 30.1005 101.627 29.3426 101.085 29.2309C100.798 29.183 100.582 29.0714 100.439 28.8958C100.311 28.7044 100.295 28.5049 100.391 28.2975C100.486 28.0901 100.694 27.9385 101.013 27.8427C101.189 27.7949 101.492 27.6991 101.923 27.5555C102.353 27.4119 102.641 27.3162 102.784 27.2683C102.928 27.2204 103.159 27.1407 103.478 27.029C103.813 26.9013 104.077 26.7976 104.268 26.7178C104.46 26.6221 104.699 26.5104 104.986 26.3827C105.273 26.2391 105.568 26.0796 105.872 25.9041C106.191 25.7285 106.438 25.6408 106.614 25.6408C106.709 25.6408 106.797 25.6647 106.877 25.7126C106.957 25.7445 107.02 25.8003 107.068 25.8801C107.132 25.9599 107.18 26.0477 107.212 26.1434C107.244 26.2232 107.268 26.3349 107.284 26.4785C107.316 26.6221 107.332 26.7497 107.332 26.8614C107.348 26.9731 107.356 27.1167 107.356 27.2922C107.356 27.4678 107.356 27.6193 107.356 27.747C107.356 27.8587 107.348 28.0182 107.332 28.2257C107.332 28.4172 107.332 28.5608 107.332 28.6565C107.316 29.0394 107.308 32.3264 107.308 38.5174Z" fill="white"/>
<path d="M114.679 29.566C114.057 30.0606 113.299 30.308 112.405 30.308C111.512 30.308 110.746 30.0606 110.107 29.566C109.485 29.0554 109.174 28.4411 109.174 27.7231C109.174 27.021 109.485 26.4226 110.107 25.928C110.746 25.4174 111.512 25.1621 112.405 25.1621C113.283 25.1621 114.033 25.4174 114.655 25.928C115.293 26.4226 115.612 27.021 115.612 27.7231C115.612 28.4411 115.301 29.0554 114.679 29.566ZM115.325 38.5174C115.325 38.9322 115.397 39.2992 115.54 39.6184C115.7 39.9375 115.876 40.1768 116.067 40.3364C116.258 40.48 116.418 40.6555 116.546 40.8629C116.689 41.0544 116.753 41.2539 116.737 41.4613C116.689 42.0676 115.349 42.3708 112.716 42.3708C112.445 42.3708 112.134 42.3628 111.783 42.3469C111.448 42.3309 111.025 42.299 110.514 42.2511C110.004 42.1873 109.573 42.0916 109.222 41.9639C108.871 41.8203 108.679 41.6528 108.647 41.4613C108.615 41.206 108.719 40.9666 108.959 40.7433C109.198 40.5039 109.453 40.2087 109.724 39.8577C109.996 39.4907 110.131 39.0519 110.131 38.5413V36.1C110.131 34.6959 109.868 33.938 109.341 33.8263C109.054 33.7784 108.847 33.6667 108.719 33.4912C108.608 33.2997 108.592 33.1083 108.671 32.9168C108.767 32.7094 108.967 32.5578 109.27 32.462C110.53 32.0472 112.086 31.5844 113.937 31.0738C114.128 31.026 114.288 31.002 114.416 31.002C114.671 31.002 114.87 31.0898 115.014 31.2653C115.157 31.4249 115.245 31.6403 115.277 31.9115C115.325 32.1668 115.349 32.47 115.349 32.821C115.365 33.1561 115.357 33.4992 115.325 33.8502V38.5174Z" fill="white"/>
<path d="M129.636 37.4164C129.747 37.2249 129.915 37.1292 130.138 37.1292C130.346 37.1292 130.521 37.209 130.665 37.3685C130.809 37.5281 130.848 37.7196 130.785 37.943C130.418 39.2992 129.612 40.4002 128.367 41.2459C127.139 42.0756 125.726 42.4905 124.131 42.4905C122.232 42.4905 120.613 41.924 119.272 40.7911C117.948 39.6582 117.286 38.2142 117.286 36.459C117.286 34.7517 117.9 33.3396 119.129 32.2227C120.373 31.1058 121.905 30.5074 123.724 30.4276C125.782 30.3319 127.338 30.6191 128.391 31.2893C129.444 31.9435 130.043 32.7333 130.186 33.6587C130.282 34.3129 130.178 34.9033 129.875 35.4299C129.588 35.9564 129.165 36.3713 128.607 36.6744C128.064 36.9617 127.482 37.185 126.859 37.3446C126.237 37.4882 125.615 37.56 124.993 37.56C124.274 37.56 123.716 37.4643 123.317 37.2728C123.716 37.911 124.211 38.4057 124.801 38.7567C125.407 39.0918 126.038 39.2354 126.692 39.1875C127.266 39.1556 127.817 38.9801 128.343 38.661C128.87 38.3419 129.301 37.927 129.636 37.4164ZM123.915 31.1935C123.405 31.2414 123.006 31.6164 122.719 32.3184C122.448 33.0205 122.336 33.7146 122.384 34.4007C122.432 35.1187 122.591 35.7969 122.862 36.4351C123.118 36.467 123.309 36.483 123.437 36.483C124.043 36.483 124.546 36.2357 124.945 35.741C125.344 35.2304 125.535 34.5283 125.519 33.6348C125.503 32.9966 125.344 32.4221 125.04 31.9115C124.753 31.385 124.378 31.1457 123.915 31.1935Z" fill="white"/>
</svg>
